<svg width="19" height="19" viewBox="0 0 19 19" fill="none" xmlns="http://www.w3.org/2000/svg">
<path fill-rule="evenodd" clip-rule="evenodd" d="M16.9215 9.11646C13.4698 8.22663 10.7726 5.52942 9.8828 2.07776L9.49963 0.591797L9.11646 2.07776C8.22663 5.52942 5.52942 8.22663 2.07776 9.11646L0.591797 9.49963L2.07776 9.88359C5.52942 10.7734 8.22663 13.4706 9.11646 16.9215L9.49963 18.4083L9.8828 16.9215C10.7726 13.4706 13.4698 10.7734 16.9215 9.88359L18.4075 9.49963L16.9215 9.11646Z" fill="#677577"/>
<path fill-rule="evenodd" clip-rule="evenodd" d="M14.8442 6.133C14.8442 5.21308 15.8528 4.15462 16.8225 4.15462C15.8892 4.15462 14.8442 3.08508 14.8442 2.17704C14.8442 3.08508 13.8087 4.15462 12.8666 4.15462C13.7731 4.15462 14.8442 5.20754 14.8442 6.133Z" fill="#677577"/>
</svg>
