<svg width="86" height="35" viewBox="0 0 86 35" fill="none" xmlns="http://www.w3.org/2000/svg">
<g filter="url(#filter0_i_2100_10790)">
<path d="M6.0139 12.5176C6.0139 12.8099 6.27492 13.0501 6.79696 13.238C7.33988 13.4259 7.98721 13.6034 8.73894 13.7705C9.51156 13.9375 10.2737 14.1777 11.0255 14.4909C11.7981 14.7833 12.4454 15.2948 12.9675 16.0257C13.5104 16.7566 13.7818 17.6754 13.7818 18.7821C13.7818 20.5779 13.1136 21.9039 11.7772 22.76C10.4408 23.6162 8.85379 24.0442 7.01621 24.0442C3.50811 24.0442 1.16937 22.8018 0 20.3169L4.54175 18.0303C4.9385 19.1788 5.75288 19.7531 6.98489 19.7531C7.92456 19.7531 8.3944 19.4712 8.3944 18.9074C8.3944 18.615 8.13338 18.3749 7.61134 18.1869C7.0893 17.999 6.45241 17.8111 5.70067 17.6231C4.94894 17.4352 4.1972 17.1846 3.44546 16.8714C2.69373 16.5582 2.05684 16.057 1.5348 15.3679C1.01276 14.658 0.751737 13.7914 0.751737 12.7682C0.751737 11.0977 1.36774 9.80299 2.59976 8.8842C3.83177 7.96541 5.31436 7.50602 7.04754 7.50602C10.138 7.50602 12.2888 8.71715 13.4999 11.1394L9.11481 13.1127C8.65542 12.2148 8.00809 11.7659 7.17283 11.7659C6.40021 11.7659 6.0139 12.0164 6.0139 12.5176Z" fill="black"/>
<path d="M18.6268 5.78328C18.0421 6.36797 17.3426 6.66031 16.5282 6.66031C15.7138 6.66031 15.0038 6.36797 14.3983 5.78328C13.8136 5.17772 13.5212 4.46774 13.5212 3.65336C13.5212 2.83898 13.8136 2.13945 14.3983 1.55476C15.0038 0.970077 15.7138 0.677734 16.5282 0.677734C17.3426 0.677734 18.0421 0.970077 18.6268 1.55476C19.2323 2.13945 19.5351 2.83898 19.5351 3.65336C19.5351 4.46774 19.2323 5.17772 18.6268 5.78328ZM13.9284 23.6057V7.94453H19.1279V23.6057H13.9284Z" fill="black"/>
<path d="M20.2467 23.6057V0.74038H25.4463V23.6057H20.2467Z" fill="black"/>
<path d="M31.2634 5.78328C30.6787 6.36797 29.9792 6.66031 29.1648 6.66031C28.3504 6.66031 27.6405 6.36797 27.0349 5.78328C26.4502 5.17772 26.1579 4.46774 26.1579 3.65336C26.1579 2.83898 26.4502 2.13945 27.0349 1.55476C27.6405 0.970077 28.3504 0.677734 29.1648 0.677734C29.9792 0.677734 30.6787 0.970077 31.2634 1.55476C31.869 2.13945 32.1718 2.83898 32.1718 3.65336C32.1718 4.46774 31.869 5.17772 31.2634 5.78328ZM26.5651 23.6057V7.94453H31.7646V23.6057H26.5651Z" fill="black"/>
<path d="M40.4328 24.0442C38.0523 24.0442 36.0685 23.2507 34.4815 21.6637C32.8945 20.0767 32.101 18.1139 32.101 15.7751C32.101 13.4364 32.8945 11.4735 34.4815 9.88652C36.0685 8.29952 38.0523 7.50602 40.4328 7.50602C41.978 7.50602 43.3771 7.87144 44.63 8.6023C45.9038 9.33316 46.8852 10.3146 47.5743 11.5466L43.1265 14.115C42.5627 13.0918 41.6544 12.5802 40.4015 12.5802C39.5244 12.5802 38.7936 12.883 38.2089 13.4886C37.6242 14.0733 37.3319 14.8355 37.3319 15.7751C37.3319 16.7148 37.6242 17.4874 38.2089 18.093C38.7936 18.6777 39.5244 18.97 40.4015 18.97C41.6961 18.97 42.6045 18.448 43.1265 17.4039L47.5743 19.9723C46.8852 21.2252 45.9038 22.2171 44.63 22.948C43.3771 23.6788 41.978 24.0442 40.4328 24.0442Z" fill="black"/>
<path d="M54.6742 24.0442C52.3563 24.0442 50.383 23.2507 48.7543 21.6637C47.1255 20.0559 46.3111 18.093 46.3111 15.7751C46.3111 13.4573 47.1255 11.5048 48.7543 9.91784C50.383 8.30996 52.3563 7.50602 54.6742 7.50602C57.0129 7.50602 58.9862 8.30996 60.5941 9.91784C62.2229 11.5048 63.0373 13.4573 63.0373 15.7751C63.0373 18.093 62.2229 20.0559 60.5941 21.6637C58.9862 23.2507 57.0129 24.0442 54.6742 24.0442ZM54.6742 19.0327C55.593 19.0327 56.3447 18.7299 56.9294 18.1243C57.535 17.5187 57.8378 16.7357 57.8378 15.7751C57.8378 14.8146 57.535 14.0315 56.9294 13.4259C56.3447 12.8204 55.593 12.5176 54.6742 12.5176C53.7763 12.5176 53.0245 12.8204 52.419 13.4259C51.8343 14.0315 51.542 14.8146 51.542 15.7751C51.542 16.7357 51.8343 17.5187 52.419 18.1243C53.0245 18.7299 53.7763 19.0327 54.6742 19.0327Z" fill="black"/>
<path d="M72.998 7.50602C74.6894 7.50602 76.0676 8.0907 77.1326 9.26007C78.2184 10.4086 78.7614 12.0686 78.7614 14.2403V23.6057H73.5618V14.8981C73.5618 14.0837 73.3426 13.4677 72.9041 13.0501C72.4864 12.6324 71.9226 12.4236 71.2127 12.4236C70.3983 12.4236 69.7614 12.6742 69.302 13.1754C68.8635 13.6556 68.6442 14.3552 68.6442 15.274V23.6057H63.4447V7.94453H68.6442V9.51065C69.5839 8.17423 71.0352 7.50602 72.998 7.50602Z" fill="black"/>
<path d="M82.7425 24.0442C81.8237 24.0442 81.0406 23.731 80.3933 23.1046C79.7668 22.4572 79.4536 21.6846 79.4536 20.7867C79.4536 19.8888 79.7773 19.1266 80.4246 18.5002C81.0719 17.8528 81.8446 17.5292 82.7425 17.5292C83.6404 17.5292 84.4026 17.8528 85.029 18.5002C85.6763 19.1266 86 19.8888 86 20.7867C86 21.6846 85.6763 22.4572 85.029 23.1046C84.4026 23.731 83.6404 24.0442 82.7425 24.0442Z" fill="black"/>
</g>
<path d="M19.6104 34.2501L19.2292 33.2413H17.282L16.9008 34.2501H16.4668L18.0445 30.1446H18.4667L20.0444 34.2501H19.6104ZM17.4286 32.8542H19.0826L18.2556 30.6548L17.4286 32.8542Z" fill="black"/>
<path d="M26.6805 34.3204C26.0589 34.3204 25.5447 34.1152 25.1381 33.7046C24.7314 33.2941 24.5281 32.7916 24.5281 32.1973C24.5281 31.603 24.7314 31.1006 25.1381 30.69C25.5447 30.2795 26.0589 30.0742 26.6805 30.0742C27.0598 30.0742 27.4078 30.1661 27.7245 30.3499C28.0412 30.5297 28.2856 30.7741 28.4576 31.083L28.094 31.2941C27.965 31.0439 27.7734 30.8445 27.5192 30.6959C27.2651 30.5473 26.9855 30.473 26.6805 30.473C26.1683 30.473 25.75 30.6392 25.4255 30.9716C25.1009 31.3039 24.9387 31.7125 24.9387 32.1973C24.9387 32.6822 25.1009 33.0908 25.4255 33.4231C25.75 33.7554 26.1683 33.9216 26.6805 33.9216C26.9855 33.9216 27.2651 33.8473 27.5192 33.6988C27.7734 33.5502 27.965 33.3508 28.094 33.1005L28.4576 33.3058C28.2895 33.6147 28.0451 33.861 27.7245 34.0448C27.4078 34.2286 27.0598 34.3204 26.6805 34.3204Z" fill="black"/>
<path d="M36.1486 34.2501L35.7674 33.2413H33.8202L33.439 34.2501H33.005L34.5827 30.1446H35.005L36.5826 34.2501H36.1486ZM33.9669 32.8542H35.6208L34.7938 30.6548L33.9669 32.8542Z" fill="black"/>
<path d="M43.0334 30.1446C43.5925 30.1446 44.0539 30.344 44.4175 30.7428C44.785 31.1377 44.9688 31.6226 44.9688 32.1973C44.9688 32.7721 44.785 33.2589 44.4175 33.6577C44.0539 34.0526 43.5925 34.2501 43.0334 34.2501H41.4498V30.1446H43.0334ZM43.0334 33.863C43.483 33.863 43.8506 33.7027 44.136 33.382C44.4253 33.0614 44.57 32.6665 44.57 32.1973C44.57 31.7281 44.4253 31.3332 44.136 31.0126C43.8506 30.692 43.483 30.5317 43.0334 30.5317H41.8604V33.863H43.0334Z" fill="black"/>
<path d="M50.4216 33.863H52.4157V34.2501H50.0111V30.1446H52.3864V30.5317H50.4216V31.9862H52.2397V32.3733H50.4216V33.863Z" fill="black"/>
<path d="M61.2147 30.1446V34.2501H60.8042V30.7663L59.3672 33.1709H59.3086L57.8717 30.7663V34.2501H57.4611V30.1446H57.9714L59.3379 32.4319L60.7045 30.1446H61.2147Z" fill="black"/>
<path d="M69.4538 30.1446L67.97 32.5668V34.2501H67.5594V32.5551L66.0815 30.1446H66.5448L67.7706 32.1563L68.9905 30.1446H69.4538Z" fill="black"/>
<defs>
<filter id="filter0_i_2100_10790" x="0" y="0.120499" width="86" height="23.9244" filterUnits="userSpaceOnUse" color-interpolation-filters="sRGB">
<feFlood flood-opacity="0" result="BackgroundImageFix"/>
<feBlend mode="normal" in="SourceGraphic" in2="BackgroundImageFix" result="shape"/>
<feColorMatrix in="SourceAlpha" type="matrix" values="0 0 0 0 0 0 0 0 0 0 0 0 0 0 0 0 0 0 127 0" result="hardAlpha"/>
<feOffset dy="-0.557235"/>
<feGaussianBlur stdDeviation="2.00605"/>
<feComposite in2="hardAlpha" operator="arithmetic" k2="-1" k3="1"/>
<feColorMatrix type="matrix" values="0 0 0 0 1 0 0 0 0 1 0 0 0 0 1 0 0 0 1 0"/>
<feBlend mode="normal" in2="shape" result="effect1_innerShadow_2100_10790"/>
</filter>
</defs>
</svg>
