<svg width="277" height="20" viewBox="0 0 277 20" fill="none" xmlns="http://www.w3.org/2000/svg" xmlns:xlink="http://www.w3.org/1999/xlink">
<g filter="url(#filter0_i_1566_10336)">
<path d="M5 13C5 13 69.5 5 141 5C212.5 5 272 14.5 272 14.5" stroke="#7EC9C5" stroke-opacity="0.38" stroke-width="10" stroke-linecap="round"/>
</g>
<g filter="url(#filter1_i_1566_10336)">
<path d="M5 13C5 13 69.5 5 141 5C212.5 5 272 14.5 272 14.5" stroke="#3AAFA9" stroke-width="7" stroke-linecap="round"/>
<path d="M5 13C5 13 69.5 5 141 5C212.5 5 272 14.5 272 14.5" stroke="url(#pattern0_1566_10336)" stroke-opacity="0.18" stroke-width="7" stroke-linecap="round"/>
</g>
<defs>
<filter id="filter0_i_1566_10336" x="0" y="0" width="277" height="22.501" filterUnits="userSpaceOnUse" color-interpolation-filters="sRGB">
<feFlood flood-opacity="0" result="BackgroundImageFix"/>
<feBlend mode="normal" in="SourceGraphic" in2="BackgroundImageFix" result="shape"/>
<feColorMatrix in="SourceAlpha" type="matrix" values="0 0 0 0 0 0 0 0 0 0 0 0 0 0 0 0 0 0 127 0" result="hardAlpha"/>
<feOffset dy="3"/>
<feGaussianBlur stdDeviation="2.4"/>
<feComposite in2="hardAlpha" operator="arithmetic" k2="-1" k3="1"/>
<feColorMatrix type="matrix" values="0 0 0 0 1 0 0 0 0 1 0 0 0 0 1 0 0 0 0.41 0"/>
<feBlend mode="normal" in2="shape" result="effect1_innerShadow_1566_10336"/>
</filter>
<filter id="filter1_i_1566_10336" x="1.5" y="1.5" width="274" height="19.501" filterUnits="userSpaceOnUse" color-interpolation-filters="sRGB">
<feFlood flood-opacity="0" result="BackgroundImageFix"/>
<feBlend mode="normal" in="SourceGraphic" in2="BackgroundImageFix" result="shape"/>
<feColorMatrix in="SourceAlpha" type="matrix" values="0 0 0 0 0 0 0 0 0 0 0 0 0 0 0 0 0 0 127 0" result="hardAlpha"/>
<feOffset dy="3"/>
<feGaussianBlur stdDeviation="2.4"/>
<feComposite in2="hardAlpha" operator="arithmetic" k2="-1" k3="1"/>
<feColorMatrix type="matrix" values="0 0 0 0 1 0 0 0 0 1 0 0 0 0 1 0 0 0 0.41 0"/>
<feBlend mode="normal" in2="shape" result="effect1_innerShadow_1566_10336"/>
</filter>
<pattern id="pattern0_1566_10336" patternUnits="userSpaceOnUse" viewBox="33767.5 -4707.5 5.5 2.75" width="2.0599250936329585%" height="28.947368421052634%" patternContentUnits="objectBoundingBox">
<g id="pattern0_1566_10336_inner">
<circle cx="0.5" cy="0.5" r="0.5" transform="matrix(1 0 0 -1 33767.5 -4702)" fill="white"/>
</g>
<use xlink:href="#pattern0_1566_10336_inner" transform="translate(0 2.75)"/>
<use xlink:href="#pattern0_1566_10336_inner" transform="translate(2.75 1.375)"/>
<use xlink:href="#pattern0_1566_10336_inner" transform="translate(2.75 4.125)"/>
</pattern></defs>
</svg>
